<?xml version="1.0" encoding="iso-8859-1"?>
<!-- Generator: Adobe Illustrator 19.0.0, SVG Export Plug-In . SVG Version: 6.00 Build 0)  -->
<svg version="1.1" id="Capa_1" xmlns="http://www.w3.org/2000/svg" xmlns:xlink="http://www.w3.org/1999/xlink" x="0px" y="0px"
	 viewBox="0 0 512.001 512.001" style="enable-background:new 0 0 512.001 512.001;" xml:space="preserve">
<g>
	<g>
		<path d="M502.746,260.818c-8.906-11.337-23.882-13.116-35.932-13.399c-10.495-0.248-21.06,0.089-31.278,0.415
			c-13.965,0.444-28.406,0.905-42.362-0.172c-1.799-0.138-3.693-0.197-5.526-0.254c-4.871-0.151-12.233-0.38-13.356-2.738
			c-2.575-5.41-1.49-8.561-0.449-10.46c5.246-9.577,27.617-17.694,59.841-21.712c14.135-1.763,24.479-6.23,31.624-13.655
			c6.371-6.622,9.241-14.245,8.083-21.464c-0.86-5.37-3.997-10.421-8.831-14.224c-9.361-7.364-23.247-8.753-37.141-3.716
			c-7.176,2.602-13.539,6.402-19.693,10.077c-3.063,1.829-5.956,3.557-8.927,5.135c-9.739,5.174-20.202,8.656-31.098,10.348
			c-3.936,0.611-8.904,1.098-12.396-0.577c-0.228-0.111-1.381-0.783-1.689-3.083c-0.641-4.781,1.56-24.146,56.757-72.597
			c7.442-6.532,13.683-13.623,18.552-21.077c5.694-8.72,8.644-16.705,9.018-24.41c0.53-10.934-4.591-21.132-13.049-25.981
			c-7.348-4.211-16.999-4.342-25.822-0.344c-7.369,3.338-13.117,8.884-17.767,13.869c-21.111,22.633-35.457,50.58-45.595,72.399
			c-3.696,7.956-8.408,15.31-13.395,23.097l-1.542,2.409c-6.454,10.106-17.317,16.996-23.718,15.05
			c-5.698-1.733-8.894-11.981-8.552-27.413c0.09-4.044,1.792-8.367,3.594-12.944c1.869-4.748,3.802-9.658,4.452-15.226
			c1.595-13.645-5.612-29.646-20.036-31.704c-8.29-1.186-17.215,2.987-22.716,10.626c-4.891,6.793-6.422,14.939-7.148,20.474
			c-1.295,9.867-1.116,19.845,0.531,29.658c0.457,2.724,1.022,5.458,1.569,8.102c1.946,9.418,3.785,18.313,0.718,25.558
			c-2.928,6.913-11.014,12.279-20.601,13.671c-15.728,2.288-33.675-5.091-48.002-19.729c-0.839-0.858-1.686-1.756-2.515-2.67
			c-2.785-3.067-7.528-3.295-10.595-0.512c-3.066,2.784-3.296,7.527-0.513,10.594c0.955,1.051,1.931,2.087,2.9,3.079
			c15.442,15.777,34.771,24.642,53.054,24.641c2.635,0,5.25-0.184,7.826-0.558c14.892-2.163,27.253-10.848,32.257-22.666
			c4.891-11.551,2.377-23.713,0.159-34.443c-0.543-2.625-1.055-5.103-1.466-7.55c-1.401-8.345-1.554-16.83-0.451-25.222
			c0.819-6.242,2.232-10.584,4.448-13.662c2.209-3.066,5.673-4.929,8.426-4.541c4.998,0.713,8.004,8.71,7.256,15.113
			c-0.425,3.631-1.924,7.44-3.512,11.473c-2.101,5.338-4.482,11.387-4.632,18.104c-0.365,16.432,2.666,37.074,19.182,42.098
			c14.901,4.532,31.766-7.298,40.726-21.328l1.53-2.392c5.037-7.863,10.245-15.994,14.368-24.867
			c9.67-20.81,23.293-47.402,42.96-68.487c3.821-4.097,8.04-8.196,12.988-10.438c4.379-1.983,9.041-2.101,12.172-0.306
			c3.507,2.011,5.779,7.045,5.527,12.242c-0.241,4.969-2.398,10.508-6.595,16.934c-4.124,6.313-9.47,12.372-15.887,18.005
			c-44.151,38.754-64.339,66.864-61.719,85.938c1.325,9.649,8.032,13.568,10.056,14.539c7.209,3.458,15.107,2.819,21.188,1.876
			c12.556-1.95,24.612-5.961,35.834-11.924c3.303-1.754,6.494-3.66,9.58-5.503c5.805-3.467,11.288-6.741,17.115-8.854
			c6.941-2.516,16.561-3.466,22.756,1.404c1.835,1.444,3.035,3.196,3.294,4.81c0.383,2.386-1.143,5.634-4.081,8.688
			c-4.667,4.85-12.083,7.85-22.672,9.171c-39.2,4.889-63.134,14.777-71.14,29.39c-2.787,5.088-5.039,13.402,0.062,24.115
			c5.056,10.619,17.412,11.002,26.433,11.283c1.74,0.054,3.384,0.105,4.839,0.218c14.77,1.139,29.627,0.666,43.992,0.208
			c10.016-0.319,20.369-0.65,30.449-0.411c8.758,0.206,19.457,1.264,24.49,7.67c3.818,4.86,3.868,12.345,3.237,17.767
			c-0.372,3.204-0.908,5.434-1.737,7.229c-2.215,4.798-7.848,8.383-14.351,9.133c-6.01,0.693-12.814-0.677-20.8-4.195
			c-3.296-1.451-6.542-3.144-9.283-4.608c-3.652-1.951-8.197-0.573-10.149,3.081c-1.952,3.653-0.572,8.197,3.081,10.149
			c2.989,1.597,6.552,3.453,10.306,5.106c8.585,3.781,16.399,5.643,23.741,5.643c1.63,0,3.238-0.092,4.824-0.275
			c11.764-1.357,21.823-8.158,26.251-17.747c1.952-4.229,2.639-8.52,3.019-11.785C510.478,277.622,508.344,267.944,502.746,260.818z
			"/>
	</g>
</g>
<g>
	<g>
		<path d="M419.641,281.7c-37.596-15.444-64.128-16.871-78.859-4.238c-4.569,3.919-7.466,9.639-8.157,16.107
			c-1.432,13.422,5.901,24.527,12.372,34.325c0.783,1.186,1.562,2.365,2.319,3.541c4.072,6.319,10.251,12.426,16.226,18.332
			c4.641,4.587,9.024,8.92,12.005,12.903l0.694,0.925c4.43,5.891,16.196,21.539,14.178,32.197c-0.407,2.148-1.523,5.358-6.496,8.417
			c-0.086,0.054-0.959,0.499-4.736-0.321c-2.212-0.48-3.83-1.052-5.094-1.801c-2.67-1.583-4.943-4.694-6.402-8.762
			c-7.499-20.912-17.468-42.167-27.35-58.315c-13.475-22.019-25.672-33.144-37.287-34.011c-5.884-0.439-11.193,1.272-14.959,4.816
			c-8.474,7.979-9.543,19.832-9.526,29.266c0.022,13.103,1.406,26.245,4.113,39.063c0.743,3.522,1.589,7.028,2.407,10.419
			c0.88,3.65,1.791,7.425,2.541,11.102c1.419,6.947,2.374,14.071,2.838,21.176c0.26,3.967,3.558,7.011,7.476,7.011
			c0.165,0,0.331-0.005,0.497-0.017c4.134-0.27,7.265-3.84,6.995-7.973c-0.509-7.782-1.556-15.587-3.109-23.198
			c-0.804-3.936-1.745-7.841-2.656-11.618c-0.793-3.288-1.613-6.688-2.313-10.001c-2.493-11.809-3.768-23.917-3.789-35.989
			c-0.011-6.411,0.525-14.287,4.81-18.32c0.928-0.873,2.796-0.837,3.56-0.779c4.639,0.346,13.803,7.59,25.609,26.883
			c9.233,15.088,18.962,35.854,26.025,55.549c1.863,5.198,5.61,12.298,12.874,16.603c2.689,1.594,5.726,2.724,9.559,3.556
			c4.556,0.989,10.468,1.705,15.778-1.562c7.426-4.568,11.925-10.759,13.373-18.4c3.252-17.17-10.377-35.295-16.926-44.006
			l-0.674-0.896c-3.65-4.879-8.642-9.814-13.47-14.585c-5.399-5.337-10.982-10.855-14.163-15.79
			c-0.787-1.222-1.598-2.448-2.411-3.681c-5.571-8.436-10.833-16.405-9.973-24.467c0.283-2.651,1.351-4.894,3.007-6.313
			c9.677-8.3,32.783-5.849,63.395,6.727c3.832,1.576,8.214-0.256,9.787-4.088C425.303,287.656,423.473,283.274,419.641,281.7z"/>
	</g>
</g>
<g>
	<g>
		<path d="M298.043,439.156c-4.109-0.496-7.845,2.448-8.333,6.561c-1.579,13.273-4.705,23.716-9.556,31.926
			c-5.718,9.677-14.208,16.478-23.295,18.66c-9.455,2.272-19.916-1.134-24.877-8.095c-1.978-2.774-3.338-6.206-4.771-10.504
			c-2.183-6.543-3.388-11.531-3.908-16.171c-2.058-18.378,6.225-37.088,13.532-53.595c0.736-1.665,1.563-3.507,2.455-5.493
			c5.328-11.869,13.38-29.806,18.036-45.446c2.457-8.253,9.932-33.37-5.895-40.632c-11.427-5.242-22.947,3.698-27.868,7.515
			c-10.325,8.01-17.761,18.415-24.951,28.478c-5.142,7.196-9.999,13.993-15.774,19.869c-10.165,10.341-23.942,18.464-40.95,24.144
			c-5.221,1.743-12.109,3.733-18.845,3.691c-6.163-0.043-11.594-1.838-15.292-5.055c-2.265-1.969-3.635-4.438-3.575-6.444
			c0.045-1.552,0.891-3.531,2.583-6.053c5.779-8.608,15.474-15.914,28.816-21.715c6.991-3.04,14.179-5.425,21.788-7.95
			c5.359-1.778,10.901-3.618,16.34-5.7c14.006-5.362,25.266-11.608,34.425-19.096c11.437-9.35,19.669-20.817,23.804-33.16
			c3.444-10.278,2.686-19.56-2.133-26.137c-2.241-3.059-5.367-5.564-9.291-7.446c-11.467-5.499-26.056-4.05-41.088,4.083
			c-4.392,2.377-8.531,5.071-12.534,7.676c-5.953,3.875-11.576,7.534-17.63,9.965c-7.002,2.812-14.676,3.951-22.191,3.296
			c-4.852-0.423-13.828-2.087-19.442-8.47c-4.186-4.761-5.211-11.926-2.333-16.31c1.728-2.632,5.029-4.877,9.814-6.673
			c8.988-3.375,19.818-4.405,33.122-3.147c3.225,0.305,6.437,0.713,9.838,1.146c12.403,1.577,25.228,3.209,38.039-0.487l0.868-0.249
			c6.336-1.811,16.938-4.842,18.762-15.026c1.441-8.05-1.342-16.733-7.637-23.825c-4.955-5.58-11.241-9.379-17.256-12.792
			c-5.641-3.201-11.443-6.343-17.053-9.381c-22.298-12.073-45.353-24.557-62.094-42.989c-3.549-3.907-6.305-8.843-9.217-16.506
			c-5.355-14.095,5.494-24.292,10.054-26.412c3.267-1.517,8.26-0.374,12.148,2.781c4.312,3.499,7.451,8.857,10.819,14.986
			c0.863,1.569,1.723,3.143,2.583,4.718c3.086,5.648,6.276,11.489,9.628,17.172c2.104,3.568,6.703,4.754,10.27,2.65
			c3.567-2.104,4.754-6.702,2.649-10.27c-3.226-5.47-6.356-11.201-9.384-16.743c-0.866-1.586-1.732-3.171-2.602-4.752
			c-3.194-5.813-7.57-13.775-14.513-19.409c-8.433-6.844-19.396-8.701-27.924-4.735c-11.988,5.575-25.921,23.84-17.75,45.342
			c2.403,6.326,5.955,14.459,12.135,21.263c18.457,20.321,42.655,33.423,66.055,46.094c5.547,3.003,11.282,6.109,16.794,9.236
			c5.124,2.908,10.008,5.838,13.441,9.705c3.11,3.504,4.677,7.773,4.099,11.159c-0.921,1.249-5.962,2.69-8.13,3.31l-0.906,0.26
			c-9.829,2.838-20.59,1.469-31.985,0.019c-3.37-0.429-6.853-0.872-10.319-1.2c-15.617-1.476-28.638-0.155-39.807,4.038
			c-7.934,2.979-13.522,7.063-17.08,12.484c-6.609,10.067-5.092,24.554,3.608,34.448c6.721,7.643,17.162,12.44,29.401,13.508
			c9.854,0.86,19.911-0.633,29.087-4.32c7.415-2.978,13.925-7.215,20.22-11.312c3.926-2.555,7.633-4.968,11.491-7.055
			c6.192-3.35,17.995-8.293,27.462-3.751c1.651,0.792,2.924,1.756,3.68,2.788c2.602,3.55,0.874,9.927,0.01,12.505
			c-3.235,9.657-9.832,18.756-19.076,26.313c-7.899,6.457-17.808,11.92-30.295,16.701c-5.122,1.961-10.5,3.746-15.701,5.472
			c-7.589,2.519-15.435,5.122-23.044,8.431c-16.013,6.963-27.886,16.084-35.289,27.11c-2.116,3.151-4.949,8.028-5.124,13.973
			c-0.193,6.578,2.987,13.213,8.725,18.203c6.399,5.565,15.288,8.668,25.031,8.737c0.113,0,0.227,0.001,0.34,0.001
			c8.847,0,17.121-2.381,23.362-4.465c19.276-6.437,35.053-15.81,46.895-27.856c6.6-6.714,12.03-14.314,17.281-21.663
			c6.866-9.607,13.35-18.683,21.942-25.348c7.65-5.936,10.973-6.395,12.419-5.733c0.04,0.019,3.527,3.387-2.228,22.719
			c-4.371,14.685-11.869,31.387-17.344,43.582c-0.902,2.012-1.74,3.877-2.487,5.564c-7.677,17.342-17.231,38.926-14.721,61.337
			c0.823,7.342,2.883,14.142,4.585,19.246c1.61,4.827,3.547,9.92,6.786,14.464c6.776,9.507,18.757,15.087,31.139,15.087
			c3.152,0,6.332-0.362,9.457-1.113c13.013-3.125,24.933-12.461,32.706-25.614c5.933-10.04,9.706-22.4,11.536-37.785
			C305.094,443.376,302.157,439.645,298.043,439.156z"/>
	</g>
</g>
<g>
	<g>
		<path d="M296.624,9.802c-5.289-7.2-14.096-10.778-23.555-9.571c-10.117,1.291-18.712,7.879-22.429,17.194
			c-2.779,6.964-8.409,24.487-0.688,36.777c2.909,4.632,8.926,10.33,21.06,11.169c0.561,0.039,1.12,0.058,1.68,0.058
			c9.681,0,18.936-5.74,22.91-14.389C305.56,29.363,301.655,16.65,296.624,9.802z M281.971,44.78
			c-1.576,3.432-5.944,5.903-9.924,5.629c-7.072-0.489-8.82-3.272-9.394-4.186c-2.734-4.351-1.981-13.471,1.917-23.237
			c2.03-5.087,6.702-7.404,10.396-7.875c0.557-0.071,1.105-0.105,1.643-0.105c3.304,0,6.192,1.318,7.926,3.678
			C288.22,23.701,287.285,33.212,281.971,44.78z"/>
	</g>
</g>
<g>
	<g>
		<path d="M72.872,261.8c-2.953-7.285-9.624-13.231-18.304-16.312c-13.119-4.657-28.437-2.704-39.022,4.976
			c-8.686,6.302-13.316,15.811-13.035,26.775c0.25,9.772,5.677,19.608,14.162,25.669c4.796,3.425,11.995,6.731,21.919,6.731
			c4.836,0,10.32-0.785,16.487-2.724c12.138-3.817,19.365-15.364,19.828-31.68C75.06,269.873,74.414,265.604,72.872,261.8z
			 M59.914,274.808c-0.159,5.601-1.583,15.36-9.334,17.797c-10.229,3.217-18.939,2.559-25.186-1.903
			c-5.664-4.045-7.788-9.988-7.888-13.848c-0.154-6.046,2.15-10.84,6.85-14.249c6.497-4.715,16.859-5.94,25.196-2.981
			c4.574,1.624,8.096,4.543,9.419,7.81C59.706,269.248,60.005,271.591,59.914,274.808z"/>
	</g>
</g>
<g>
	<g>
		<path d="M459.368,439.834c-5.338-9.6-14.349-16.511-24.722-18.96c-7.89-1.862-15.63-0.733-21.238,3.1
			c-6.938,4.741-11.335,13.049-12.38,23.393c-0.929,9.193,0.979,19.078,5.235,27.118c6.123,11.568,18.135,18.999,31.345,19.393
			c0.358,0.011,0.714,0.016,1.068,0.016c10.614,0,19.81-4.764,24.745-12.875C467.914,473.633,470.857,460.493,459.368,439.834z
			 M450.608,473.223c-2.258,3.712-6.936,5.823-12.55,5.662c-6.137-0.184-14.228-3.279-18.536-11.418
			c-5.788-10.934-4.624-26.343,2.35-31.109c1.326-0.906,3.201-1.373,5.343-1.373c1.256,0,2.603,0.161,3.985,0.487
			c6.185,1.46,11.816,5.816,15.061,11.652C452.4,458.161,453.984,467.674,450.608,473.223z"/>
	</g>
</g>
<g>
</g>
<g>
</g>
<g>
</g>
<g>
</g>
<g>
</g>
<g>
</g>
<g>
</g>
<g>
</g>
<g>
</g>
<g>
</g>
<g>
</g>
<g>
</g>
<g>
</g>
<g>
</g>
<g>
</g>
</svg>
